<svg id="visual" viewBox="0 0 900 600" width="900" height="600" xmlns="http://www.w3.org/2000/svg" xmlns:xlink="http://www.w3.org/1999/xlink" version="1.1"><rect x="0" y="0" width="900" height="600" fill="#001220"></rect><path d="M0 304L21.5 319.3C43 334.7 86 365.3 128.8 369.2C171.7 373 214.3 350 257.2 351.2C300 352.3 343 377.7 385.8 387.2C428.7 396.7 471.3 390.3 514.2 373.3C557 356.3 600 328.7 642.8 318.7C685.7 308.7 728.3 316.3 771.2 322C814 327.7 857 331.3 878.5 333.2L900 335L900 601L878.5 601C857 601 814 601 771.2 601C728.3 601 685.7 601 642.8 601C600 601 557 601 514.2 601C471.3 601 428.7 601 385.8 601C343 601 300 601 257.2 601C214.3 601 171.7 601 128.8 601C86 601 43 601 21.5 601L0 601Z" fill="#fa7268"></path><path d="M0 346L21.5 348.5C43 351 86 356 128.8 366.3C171.7 376.7 214.3 392.3 257.2 389.7C300 387 343 366 385.8 360.3C428.7 354.7 471.3 364.3 514.2 375.3C557 386.3 600 398.7 642.8 399.8C685.7 401 728.3 391 771.2 378.3C814 365.7 857 350.3 878.5 342.7L900 335L900 601L878.5 601C857 601 814 601 771.2 601C728.3 601 685.7 601 642.8 601C600 601 557 601 514.2 601C471.3 601 428.7 601 385.8 601C343 601 300 601 257.2 601C214.3 601 171.7 601 128.8 601C86 601 43 601 21.5 601L0 601Z" fill="#f46767"></path><path d="M0 425L21.5 420.7C43 416.3 86 407.7 128.8 412.2C171.7 416.7 214.3 434.3 257.2 440.3C300 446.3 343 440.7 385.8 430.3C428.7 420 471.3 405 514.2 403.8C557 402.7 600 415.3 642.8 413.3C685.7 411.3 728.3 394.7 771.2 395.7C814 396.7 857 415.3 878.5 424.7L900 434L900 601L878.5 601C857 601 814 601 771.2 601C728.3 601 685.7 601 642.8 601C600 601 557 601 514.2 601C471.3 601 428.7 601 385.8 601C343 601 300 601 257.2 601C214.3 601 171.7 601 128.8 601C86 601 43 601 21.5 601L0 601Z" fill="#ee5c67"></path><path d="M0 452L21.5 452.8C43 453.7 86 455.3 128.8 452.2C171.7 449 214.3 441 257.2 443C300 445 343 457 385.8 455.7C428.7 454.3 471.3 439.7 514.2 436.7C557 433.7 600 442.3 642.8 447.5C685.7 452.7 728.3 454.3 771.2 448.2C814 442 857 428 878.5 421L900 414L900 601L878.5 601C857 601 814 601 771.2 601C728.3 601 685.7 601 642.8 601C600 601 557 601 514.2 601C471.3 601 428.7 601 385.8 601C343 601 300 601 257.2 601C214.3 601 171.7 601 128.8 601C86 601 43 601 21.5 601L0 601Z" fill="#e75167"></path><path d="M0 476L21.5 480.2C43 484.3 86 492.7 128.8 487.2C171.7 481.7 214.3 462.3 257.2 453C300 443.7 343 444.3 385.8 444C428.7 443.7 471.3 442.3 514.2 448C557 453.7 600 466.3 642.8 475.3C685.7 484.3 728.3 489.7 771.2 491.5C814 493.3 857 491.7 878.5 490.8L900 490L900 601L878.5 601C857 601 814 601 771.2 601C728.3 601 685.7 601 642.8 601C600 601 557 601 514.2 601C471.3 601 428.7 601 385.8 601C343 601 300 601 257.2 601C214.3 601 171.7 601 128.8 601C86 601 43 601 21.5 601L0 601Z" fill="#df4667"></path><path d="M0 511L21.5 513.2C43 515.3 86 519.7 128.8 516.3C171.7 513 214.3 502 257.2 498.7C300 495.3 343 499.7 385.8 504.8C428.7 510 471.3 516 514.2 510.7C557 505.3 600 488.7 642.8 487.8C685.7 487 728.3 502 771.2 507.5C814 513 857 509 878.5 507L900 505L900 601L878.5 601C857 601 814 601 771.2 601C728.3 601 685.7 601 642.8 601C600 601 557 601 514.2 601C471.3 601 428.7 601 385.8 601C343 601 300 601 257.2 601C214.3 601 171.7 601 128.8 601C86 601 43 601 21.5 601L0 601Z" fill="#d73b67"></path><path d="M0 554L21.5 549.2C43 544.3 86 534.7 128.8 533.8C171.7 533 214.3 541 257.2 539.7C300 538.3 343 527.7 385.8 524.8C428.7 522 471.3 527 514.2 529C557 531 600 530 642.8 528.7C685.7 527.3 728.3 525.7 771.2 524.8C814 524 857 524 878.5 524L900 524L900 601L878.5 601C857 601 814 601 771.2 601C728.3 601 685.7 601 642.8 601C600 601 557 601 514.2 601C471.3 601 428.7 601 385.8 601C343 601 300 601 257.2 601C214.3 601 171.7 601 128.8 601C86 601 43 601 21.5 601L0 601Z" fill="#cf3068"></path><path d="M0 570L21.5 567.3C43 564.7 86 559.3 128.8 556.8C171.7 554.3 214.3 554.7 257.2 554.2C300 553.7 343 552.3 385.8 555.7C428.7 559 471.3 567 514.2 570.5C557 574 600 573 642.8 568.7C685.7 564.3 728.3 556.7 771.2 555C814 553.3 857 557.7 878.5 559.8L900 562L900 601L878.5 601C857 601 814 601 771.2 601C728.3 601 685.7 601 642.8 601C600 601 557 601 514.2 601C471.3 601 428.7 601 385.8 601C343 601 300 601 257.2 601C214.3 601 171.7 601 128.8 601C86 601 43 601 21.5 601L0 601Z" fill="#c62368"></path></svg>